<svg xmlns="http://www.w3.org/2000/svg" width="128" height="128" viewBox="0 0 128 128" role="img" aria-labelledby="title desc">
  <title id="title">Pseudo-savant portrait mark</title>
  <desc id="desc">Single-color hand-drawn style portrait silhouette with hair and visor glasses.</desc>
  <g fill="#101010" stroke="#101010" stroke-linecap="round" stroke-linejoin="round">
    <path d="M21 33c2-12 13-20 31-20 17 0 30 7 38 20 2 4 4 8 5 13l-11-4-11 2-8-4-9 2-8-3-8 2-8-2-11 5z"/>
    <path d="M28 49c4-6 12-8 18-6 7 2 13 8 18 15 6 8 13 14 22 18l-8 3c-11-4-19-11-25-19-5-7-9-11-14-13-5-2-10-1-15 2z"/>
    <path d="M30 52c2 24 2 34 7 46 6 14 17 19 27 18 10-1 20-8 24-19 3-8 4-14 5-24l8-6c0 15-2 27-7 38-6 13-18 22-31 24-14 2-30-5-39-24-5-11-7-25-7-40z"/>
    <path d="M16 58l10 5-10 10z"/>
    <path d="M102 64l13 2-12 9z"/>
    <path d="M37 67c6-9 12-13 19-13 9 1 17 7 27 18l-7 4c-8-9-14-13-21-14-5 0-9 3-14 10z"/>
    <path d="M73 53c0-2 2-4 4-4s4 2 4 4-2 4-4 4-4-2-4-4z"/>
    <path d="M54 95l6-4 6 2-5 5z"/>
  </g>
</svg>
